<svg width="26" height="26" viewBox="0 0 26 26" fill="none" xmlns="http://www.w3.org/2000/svg">
<path d="M23.2226 14.7166C23.706 14.7166 24.0979 15.1081 24.0979 15.5911L24.0975 22.9341C24.1306 23.9493 24.0088 24.6146 23.5546 25.0333C23.1322 25.4227 22.5205 25.5347 21.7258 25.4912L4.42948 25.4902C3.62669 25.4521 3.00127 25.1245 2.7101 24.4675C2.51771 24.0335 2.42792 23.5216 2.42792 22.9322V15.5911C2.42792 15.1081 2.81984 14.7166 3.30329 14.7166C3.78674 14.7166 4.17866 15.1081 4.17866 15.5911V22.9322C4.17866 23.222 4.20961 23.4564 4.26495 23.6355L4.31 23.7575L4.3065 23.744C4.30782 23.729 4.34295 23.7354 4.47098 23.7423L21.7724 23.7435C22.0774 23.7597 22.2727 23.742 22.3414 23.7412L22.3462 23.74C22.3304 23.6736 22.3612 23.4022 22.3472 22.9626V15.5911C22.3472 15.1081 22.7391 14.7166 23.2226 14.7166ZM13.5428 0.5C13.8725 0.5 14.1669 0.62956 14.4453 0.871392L25.2258 11.0448C25.5772 11.3765 25.593 11.9299 25.261 12.281C24.929 12.632 24.3749 12.6478 24.0235 12.3161L13.5023 2.38623L1.94712 12.3426C1.58103 12.6581 1.02829 12.6173 0.712523 12.2516C0.39676 11.8859 0.437555 11.3337 0.803642 11.0183L12.6106 0.844892L12.7185 0.765494C12.9868 0.597994 13.2532 0.5 13.5428 0.5Z" fill="#FFF9DE"/>
</svg>
