<svg width="26" height="25" viewBox="0 0 26 25" fill="none" xmlns="http://www.w3.org/2000/svg">
<path d="M17.602 0.596392C20.1109 -0.0981901 22.1866 0.634684 23.6632 2.18314C24.9533 3.53606 25.6984 5.89058 25.4538 8.54452C25.2702 10.5362 24.3371 12.5578 22.6509 14.6617L13.5592 24.6945C13.2237 25.0646 12.6891 25.063 12.3555 24.6908L3.33253 14.6236C1.99746 12.9807 1.14527 11.4204 0.790665 9.92428C0.276199 7.75372 0.451362 5.56075 1.263 3.77491C2.22518 1.65786 4.14521 0.400574 6.92712 0.400574C8.83045 0.400574 10.8273 1.49091 12.9342 3.61892C14.3683 2.07327 15.9257 1.06049 17.602 0.596392ZM12.9623 22.6278L21.4134 13.3044C22.8354 11.5279 23.6003 9.87062 23.7413 8.34122C23.9305 6.28934 23.3784 4.54498 22.4946 3.61814C21.4213 2.49259 19.9253 1.9644 18.0101 2.49463C16.4392 2.92955 14.9672 3.97179 13.5876 5.64493C13.2592 6.04321 12.7071 6.05921 12.3612 5.68047C10.3151 3.4399 8.49637 2.35449 6.92712 2.35449C4.77438 2.35449 3.45249 3.22009 2.79328 4.67055C2.18305 6.01321 2.04786 7.70583 2.45338 9.41677C2.72658 10.5694 3.43665 11.8695 4.56893 13.2646L12.9623 22.6278Z" fill="#FFF9DE"/>
</svg>
