<svg width="24" height="25" viewBox="0 0 24 25" fill="none" xmlns="http://www.w3.org/2000/svg">
<path d="M23.0131 6.0225L21.4785 7.63596L16.5139 2.41638L18.0811 0.768705L18.0947 0.755306C18.15 0.703876 18.3143 0.568536 18.5147 0.518545C18.6727 0.479132 18.9003 0.475225 19.1896 0.779412L22.9097 4.69066L22.9097 4.69069C23.2869 5.08721 23.2781 5.4092 23.221 5.62312C23.1883 5.74527 23.1335 5.84985 23.0848 5.92515C23.0609 5.96203 23.04 5.98967 23.0265 6.00642C23.0199 6.01458 23.0153 6.01996 23.0132 6.02237C23.0132 6.02242 23.0131 6.02246 23.0131 6.0225ZM23.0131 6.0225L23.0121 6.02361C23.0117 6.02405 23.0121 6.02367 23.0131 6.0225ZM0.716336 24.2646L2.49057 17.6894L6.97012 22.3991L0.716336 24.2646ZM3.4938 16.107L15.2562 3.74027L20.2192 8.95835L8.45689 21.325L3.4938 16.107Z" stroke="black"/>
</svg>
