<svg width="19" height="25" viewBox="0 0 19 25" fill="none" xmlns="http://www.w3.org/2000/svg">
<path d="M9.35683 0C10.7173 0 11.8201 1.12245 11.8201 2.50705L11.8093 2.71072C12.8943 3.15065 13.9421 3.88152 14.8728 4.84759C15.9498 5.96546 16.5804 7.44519 16.7743 9.34348V16.1913L18.2625 18.8137C18.7619 19.6459 18.9221 20.3437 18.5322 20.9471C18.1754 21.4993 17.5369 21.6907 16.6689 21.6765L13.3316 21.6772C12.9437 23.5745 11.2915 25 9.31226 25C7.33298 25 5.68083 23.5745 5.29291 21.6772L1.59706 21.6765L1.52795 21.6736C0.744239 21.6062 0.160281 21.2269 0.0290156 20.4976C-0.059988 20.0031 0.0568768 19.4696 0.364329 18.8345L1.8953 16.1089L1.8985 9.26856C2.03223 7.75651 2.59801 6.34691 3.58345 5.05458C4.41734 3.96097 5.60847 3.15647 6.90098 2.69252C6.89578 2.63141 6.89353 2.56935 6.89353 2.50705C6.89353 1.12245 7.99639 0 9.35683 0ZM11.6282 21.6778H6.99634C7.34013 22.6408 8.24726 23.3286 9.31226 23.3286C10.3772 23.3286 11.2844 22.6408 11.6282 21.6778ZM9.47693 3.90496C7.78519 3.90496 5.9235 4.71184 4.8808 6.07929C4.08372 7.12461 3.63895 8.2327 3.53739 9.34348V16.3311C3.53739 16.4766 3.50008 16.6195 3.42913 16.7458L1.81459 19.6167C1.73855 19.7748 1.69074 19.9051 1.66507 20.0052L16.6819 20.0053C16.834 20.0077 16.9483 20.0018 17.0276 19.9982C16.9868 19.9075 16.9287 19.7973 16.8508 19.6672L15.2422 16.8333C15.1701 16.7062 15.1321 16.562 15.1321 16.4153L15.1367 9.43193C14.9849 7.97988 14.5044 6.8524 13.7002 6.01776C12.3991 4.66721 10.872 3.90496 9.47693 3.90496ZM9.35683 1.67137C8.97615 1.67137 8.65598 1.93503 8.56299 2.29271C8.86972 2.25327 9.17503 2.2336 9.47693 2.2336C9.69937 2.2336 9.92261 2.24716 10.146 2.27383C10.0473 1.92659 9.73137 1.67137 9.35683 1.67137Z" fill="black"/>
</svg>
