<svg width="25" height="25" viewBox="0 0 25 25" fill="none" xmlns="http://www.w3.org/2000/svg">
<path d="M10.2443 0C15.9021 0 20.4887 4.52438 20.4887 10.1055C20.4887 12.62 19.5576 14.9201 18.0171 16.6884L24.7519 23.5304C25.0897 23.8736 25.0815 24.422 24.7336 24.7553C24.3857 25.0885 23.8297 25.0804 23.4919 24.7372L16.7638 17.9008C14.9925 19.3439 12.7211 20.211 10.2443 20.211C4.58654 20.211 0 15.6866 0 10.1055C0 4.52438 4.58654 0 10.2443 0ZM10.2443 1.73237C5.55645 1.73237 1.75617 5.48114 1.75617 10.1055C1.75617 14.7298 5.55645 18.4786 10.2443 18.4786C14.9322 18.4786 18.7325 14.7298 18.7325 10.1055C18.7325 5.48114 14.9322 1.73237 10.2443 1.73237Z" fill="black"/>
</svg>
